<svg xmlns="http://www.w3.org/2000/svg" width="27" height="34" fill="none"><path fill="#63D1BB" d="M13.76 0h-.1L.22 1.4v24.62L13.66 34 27 26.02V1.4L13.76 0ZM25.1 12.06 13.66 5.28v-.1h-.1l-.1-.1v.1L2.11 12.06V3.1l11.45-1.2 11.55 1.2v8.97ZM13.56 6.78l11.45 6.68-4.48 2.6-7.07-4.2v1.4l5.87 3.5-.9.49-4.97-3v1.4l3.78 2.3-.8.5-2.98-1.8v1.4l1.9 1.1-1.8 1.1-11.35-6.69 11.35-6.78ZM2.11 15.06l11.35 6.78v1l-7.87-4.7v1.4l7.97 4.79v1.1l-7.97-4.7v1.4l7.97 4.8 8.06-4.9v-5.18l3.39-2v9.98L13.56 31.7 2.11 24.93v-9.87Z"/></svg>