<svg xmlns="http://www.w3.org/2000/svg" xmlns:xlink="http://www.w3.org/1999/xlink"><symbol id="cart"><path d="M20.19 6.86h-3.55L13.19.38c-.2-.38-.61-.48-1.02-.28-.4.19-.5.57-.3.95l3.14 5.8H5.78l3.15-5.8c.2-.38 0-.76-.3-.95A.82.82 0 0 0 7.6.38L4.16 6.86H.8c-.4 0-.81.28-.81.76 0 .38.3.76.81.76H1l.92 2.86c-.2.1-.3.28-.3.57 0 .38.3.67.7.67L4.06 18h12.88l1.73-5.52c.4 0 .7-.29.7-.67 0-.2-.1-.48-.3-.57L20 8.38h.2c.4 0 .81-.28.81-.76s-.4-.76-.81-.76Zm-4.57 9.62H5.07l-1.21-4.1h13.08l-1.32 4.1Zm1.63-5.53H3.35L2.54 8.3h15.52l-.81 2.66Z"/></symbol><symbol id="htmlacademy" viewBox="0 0 27 34"><path d="M13.76 0h-.1L.22 1.4v24.62L13.66 34 27 26.02V1.4L13.76 0ZM25.1 12.06 13.66 5.28v-.1h-.1l-.1-.1v.1L2.11 12.06V3.1l11.45-1.2 11.55 1.2v8.97ZM13.56 6.78l11.45 6.68-4.48 2.6-7.07-4.2v1.4l5.87 3.5-.9.49-4.97-3v1.4l3.78 2.3-.8.5-2.98-1.8v1.4l1.9 1.1-1.8 1.1-11.35-6.69 11.35-6.78ZM2.11 15.06l11.35 6.78v1l-7.87-4.7v1.4l7.97 4.79v1.1l-7.97-4.7v1.4l7.97 4.8 8.06-4.9v-5.18l3.39-2v9.98L13.56 31.7 2.11 24.93v-9.87Z"/></symbol><symbol id="logo-footer" viewBox="0 0 102 34"><path d="M19.22 21.38c-.1-2.68-.5-5.27-.5-7.95 0-2.2.4-4.38-.4-6.47 0-.2.1-.5.1-.7.2-.99-3.3-.5-3.8.5-.3.3-.5.6-.4 1 0 .1.1.2.1.3-.7 3.18-1.6 6.26-2.6 9.34-.4 1.2-.9 2.3-1.3 3.48-.6-1.09-1.2-2.18-1.6-3.38-1.4-3.38-2.6-6.86-4.3-10.14.2-1.5-3.2-1.4-3.9 0-.8 1.69-.7 3.38-.4 5.17.3 1.99.4 3.98.4 6.07 0 3.97.4 7.85.4 11.83-.4.4-.5.9-.1 1.4.2.2.4.4.6.5 1 .69 3.6.09 3.6-1.3 0-4.08-.3-8.16-.4-12.33v-1.2c.1.1.1.3.2.4.6 1.6 1.3 3.18 2.2 4.67.9 1.5 1.3 3.09 1.8 4.68-.2.2-.3.5-.2.7 0 .2.1.3.3.4.6.49 1.8.3 2.5 0 .3-.1.6-.3.8-.4.3-.2.9-.7.7-1.2 0-.1-.1-.2-.1-.3.5-1.29.7-2.58 1-3.88.3-1.39.8-2.78 1.3-4.07.1.6.1 1.2.2 1.89.2 2.58 0 5.07 0 7.55 0 .8.1 1.6.2 2.5.1.29.4 1.78.3 1.88-.8.5-.6 1.1.2 1.3.9.2 2.1-.1 2.8-.7 1.2-1.1.6-2.79.4-4.18-.5-2.39 0-4.97-.1-7.36Zm8.4.7c-.1-2-.8-3.88-.8-5.87 0-2.29.2-4.57-.2-6.86-.1-.7-4.1.1-3.9 1 .3 2.08.2 4.17.2 6.36 0 1.99.5 3.88.7 5.86.3 2.1-.1 4.18.1 6.17.1 1 .8 2.69.1 3.58-.4.5 1.5.3 1.6.3.8-.1 1.8-.4 2.3-1 .7-.8.2-2.38.1-3.38-.3-1.99-.1-4.17-.2-6.16Zm16.3-3.28c-2.1-2.79-5.9-.8-8.6-1.5-1.4-.4-1.4-2.28-1.4-3.38 0-1.39-.1-2.68-.3-4.07-.1-1.1 0-2.1.7-2.89.1-.1.9-.3.8-.3.4-.1.7-.1 1.1-.1 1.5-.1 4.6.2 4 2.49-.3 1 3.6.4 3.9-.6 1.2-4.57-7.3-3.68-9.7-3.08-2.2.6-4.6 1.79-4.8 4.38-.1 1.19.3 2.38.3 3.58.1 1.39-.2 2.78.3 4.07 1.1 2.99 5.5 1.6 7.8 1.7 3.8.3 2.7 5.46 2.7 7.85 0 1.3 1.2 3.38.2 4.48-.6.7-2 .7-2.8.8-.8.1-2.2.29-2.7-.5-1-1.4.1-3.79-.1-5.38-.1-.9-4.1-.1-3.9 1 .3 2.58-1.4 6.06 2.4 6.56 2.4.3 5.2-.2 7.5-.9 1.2-.4 2.3-.89 3.2-1.78 1-.9.7-2.3.4-3.48-.5-3.09.9-6.47-1-8.95Zm17.4-.2c-.1-3.78-.7-7.46-.7-11.24 0-1.99-4-1.3-4 .3 0 3.58.5 7.16.7 10.74v.2c-1.9 0-3.9.2-5.9.2.2-4.58-.6-9.15-.4-13.83 0-.6-3.9-.1-3.9 1-.2 4.47.6 8.85.5 13.32l-.3 6.37c0 1.1.2 2.19.3 3.28.1 1 .5 2.29.2 3.28-.2.8 3.6.3 3.9-.7.5-1.79-.2-3.97-.4-5.76-.2-1.7 0-3.48.1-5.17 2-.1 4.1-.3 6.1 0l.3 4.07c.1 1.2.2 2.29.2 3.48 0 1 .1 2.49-.2 3.48-.8 2.1 3.1 1.9 3.7.4.7-1.89.5-4.17.4-6.16-.2-2.49-.6-4.88-.6-7.26Zm16.9 4.37c-.9-2.78-2.4-5.17-3.6-7.75 1-1.9 2-3.88 2.9-5.87.8-1.8 1.4-3.78 3.1-5.07.6-.4.6-.9-.3-1-.9-.1-2.1.2-2.8.7-1.4 1.3-2.4 2.68-3.1 4.37-.9 2.1-1.9 4.08-2.9 6.07-.1.1-.1.3-.2.4-.5.3-.8.8-.6 1.3a66.9 66.9 0 0 1-2.5 4.57c-.3-5.47-1-11.04-1.2-16.51 0-1.3-4-.5-3.9 1 .2 6.85 1.2 13.62 1.3 20.48v.1c-.3.3-.2.5.1.6 0 1.78-.1 3.47-.2 5.26-.5.7.5 1.1 1.1 1.1h.1c.7 0 2.6-.3 2.7-1.4.2-2.08.3-4.17.2-6.26 1.6-1.69 2.9-3.58 4.1-5.57.8 1.5 1.5 2.99 2 4.58.9 2.68 2.3 5.27 3.1 7.95.5 1.8 4.5.7 3.9-1-1-2.78-2.4-5.26-3.3-8.05Zm23.5-4.57c-.2-.8-1.4-.8-2.3-.8v-1c-.1-2.68-.2-5.36-.4-7.95-.2-2.48-1.6-3.28-4-3.18-2.4.1-5.2.5-7.5 1.4-2.6.99-4.1 2.88-4.6 5.66-.5 2.98.2 6.17.4 9.15.2 3.48.1 6.96.1 10.44 0 .6 3.9 0 3.9-1v-8.25c0-.8-.1-1.59-.1-2.38 1.4-.6 3.7 0 5.1.1 1.1.1 2.2-.2 3.2-.3 0 2.29.1 4.57.2 6.86 0 1.2.5 3.48-.4 4.47-.4.5 1.5.3 1.6.3.8-.1 1.8-.4 2.3-1 .9-1.09.5-3.77.4-5.06-.1-1.9-.1-3.78-.1-5.67 1.1-.2 2.4-.9 2.2-1.8Zm-14.6-.1-.3-3.68c-.2-2.29.1-5.57 2.3-6.96.6-.4 1.7-.3 2.4-.4 1-.2 2-.4 2.8.2 1.2.8.9 3.68.9 4.87 0 2 .2 3.98.3 5.97-.6.1-1.1.1-1.7.1-2.3-.2-4.6-.6-6.7-.1ZM24.22 6.66c.5-.1 1-.2 1.5-.5l.2-.2c.5-.3 1-.79.7-1.39-.5-1.09-.4-2.18-.4-3.38 0-1-1-1.19-1.8-1.19-.7.1-2.2.6-2.2 1.5 0 .99-.1 1.98.1 2.98 0 .1-.1.2-.1.4-.1.2 0 .4.1.59v.4c.1.2.2.4.4.5.6.3 1.1.3 1.5.3Z"/></symbol><symbol id="mail" viewBox="0 0 32 21"><path d="M28 0H4C1.8 0 0 1.8 0 4v13c0 2.2 1.8 4 4 4h24c2.2 0 4-1.8 4-4V4c0-2.2-1.8-4-4-4ZM2 5.3l7 5.3-7 5.3V5.3ZM30 17a2 2 0 0 1-2 2H4a2 2 0 0 1-2-2l7.8-5.9 4.4 3.3a3 3 0 0 0 3.6 0l4.4-3.3L30 17Zm0-1.2-7-5.3 7-5.3v10.6Zm-12.8-2.2c-.4.3-.8.4-1.2.4-.4 0-.9-.1-1.2-.4l-4.1-3.1-.8-.6L2 4c0-1.1.9-2 2-2h24a2 2 0 0 1 2 2l-12.8 9.6Z"/></symbol><symbol id="phone" viewBox="0 0 25 24"><path d="M17.44 24h-1.11c-4.939-.593-8.568-2.864-11.189-5.728C2.521 15.408.403 11.753 0 6.716V5.333c.1-.888.504-1.481 1.109-2.074.605-.69 1.613-1.481 2.52-1.58.706 0 1.815.494 2.218 1.087.403.493.605 1.58.806 2.37.202.889.605 1.975.504 2.765-.201 1.186-1.814 1.68-2.217 2.568 1.612 3.655 4.133 6.42 7.56 8.198.806-.494 1.613-1.877 2.823-1.877.403 0 1.008.198 1.41.297.505.098.908.296 1.311.493.706.297 2.017.593 2.42 1.186.403.592.705 1.58.605 2.172-.303 1.284-2.42 2.667-3.63 3.062ZM12.6 1.481c5.948 0 10.888 4.741 10.888 10.667H25C25 5.432 19.456 0 12.6 0v1.481Z"/><path d="M12.6 9.185v1.58c.807 0 1.412.593 1.412 1.383h1.613c0-1.58-1.31-2.963-3.024-2.963ZM12.6 6.124c3.327 0 6.15 2.666 6.15 6.024h1.613c0-4.148-3.427-7.506-7.661-7.506v1.482H12.6Z"/></symbol><symbol id="play" viewBox="0 0 101 77"><g fill="none"><path fill="#63D1BB" d="M97 18.1s-.9-7-3.8-10.1c-3.6-4-7.7-4.1-9.5-4.3-13.3-1-33.3-1-33.3-1h-.1s-20 0-33.3 1c-1.9.2-5.9.3-9.5 4.3-2.8 3.1-3.8 10.1-3.8 10.1s-.9 8.2-.9 16.4v7.7c0 8.2.9 16.4.9 16.4s.9 7 3.8 10.1c3.6 4 8.4 3.9 10.5 4.3 7.6.8 32.4 1 32.4 1s20 0 33.3-1c1.9-.2 5.9-.3 9.5-4.3C96 65.6 97 58.6 97 58.6s.9-8.2.9-16.4v-7.7c0-8.2-.9-16.4-.9-16.4Z"/><path fill="#fff" d="M50.3 76.8c-1 0-25-.3-32.6-1h-.2c-.3-.1-.7-.1-1.1-.2-2.5-.3-7.2-.9-10.8-5C2.2 67 1.2 59.8 1.1 59c0-.3-1-8.5-1-16.7v-7.7c0-8.3.9-16.4.9-16.7v-.1c.1-.8 1.2-7.9 4.5-11.6 4-4.4 8.5-4.9 10.7-5.1.2 0 .4 0 .5-.1h.1c13.3-1 33.3-1 33.5-1h.1c.2 0 20.2 0 33.5 1h.1c.2 0 .3 0 .5.1 2.2.2 6.7.7 10.7 5.1 3.4 3.6 4.4 10.8 4.5 11.6 0 .3 1 8.5 1 16.8v7.7c0 8.3-.9 16.4-1 16.7v.1c-.1.8-1.2 8-4.5 11.6-4 4.4-8.5 4.9-10.7 5.1-.2 0-.4 0-.5.1h-.1c-13.3.9-33.4.9-33.6.9Zm-31.9-6.4c7.5.7 31.2 1 32 1 .7 0 20.1 0 33-1 .2 0 .4 0 .6-.1 1.8-.2 4.6-.5 7.2-3.3 1.8-2 2.9-6.9 3.1-8.6.1-.5.9-8.4.9-16.1v-7.7c0-7.8-.9-15.6-1-16.1-.3-2.4-1.4-6.8-3.1-8.5-2.6-2.9-5.4-3.1-7.2-3.3-.2 0-.4 0-.6-.1-13.1-1-32.8-1-33-1h-.1c-.2 0-20 0-33 1-.2 0-.4 0-.6.1-1.8.2-4.6.5-7.2 3.3-1.8 2-2.9 6.9-3.1 8.6-.1.6-.9 8.4-.9 16.1v7.7c0 7.7.9 15.6.9 16.1.3 2.4 1.4 6.8 3.1 8.5 2.3 2.6 5.3 3 7.5 3.3.6-.1 1 0 1.5.1Z"/><path fill="#fff" d="M38.4 20.5v35.7l29.8-17.8-29.8-17.9Z"/></g></symbol><symbol id="search" viewBox="0 0 18 18"><path d="m17.7 16.06-3.48-3.48a7.63 7.63 0 0 0 1.53-4.7c0-4.4-3.48-7.88-7.88-7.88A7.81 7.81 0 0 0 0 7.88c0 4.4 3.48 7.87 7.88 7.87 1.73 0 3.37-.61 4.7-1.53l3.48 3.47c.2.2.4.31.82.31.6 0 1.12-.51 1.12-1.13 0-.2-.1-.5-.3-.81ZM2.24 7.88a5.67 5.67 0 0 1 5.63-5.63 5.67 5.67 0 0 1 5.62 5.63 5.67 5.67 0 0 1-5.63 5.62 5.67 5.67 0 0 1-5.62-5.63Z"/></symbol><symbol id="telegram" viewBox="0 0 21 18"><path fill-rule="evenodd" d="M20.2.15c.18.15.27.38.23.61L17.8 16.52a.66.66 0 0 1-1 .44l-7.9-5.25a.66.66 0 0 1-.15-.96l2.61-3.26L7 10.39a.66.66 0 0 1-.65.05L1.1 7.8a.66.66 0 0 1 .08-1.2L19.56.03a.66.66 0 0 1 .64.11ZM3.07 7.32 6.6 9.1l7.56-5.04a.66.66 0 0 1 .88.96l-4.8 6 6.43 4.3 2.28-13.66L3.07 7.32Z" clip-rule="evenodd"/></symbol><symbol id="vk" viewBox="0 0 28 17"><path d="M.74 2.34c0-.86.52-1.32 1.55-1.38l3.97.02c.26 0 .44.13.53.38.4 1.26.87 2.34 1.37 3.25.5.92 1.17 1.97 1.99 3.16.07.15.18.23.34.23.13 0 .22-.06.3-.18l.08-.28.02-4.35c0-.3-.07-.5-.22-.6-.16-.1-.43-.18-.84-.23-.32-.05-.48-.23-.48-.55 0-.07 0-.12.02-.15C9.75.57 10.81.03 12.57.03l1.5-.03c.67 0 1.23.16 1.67.48.45.32.67.82.67 1.5V7.7c.12.08.24.12.34.12.27 0 .5-.15.7-.45 1.95-2.58 3-4.31 3.17-5.18 0-.02.01-.06.05-.13.12-.25.33-.47.61-.65.29-.19.54-.31.75-.38a.55.55 0 0 1 .24-.05h4.13l.27.03c.35 0 .63.16.82.47.07.1.12.21.15.33a2.42 2.42 0 0 1 .06.55v.18a6.1 6.1 0 0 1-.94 2.2c-.5.78-1.15 1.62-1.93 2.53-.78.9-1.27 1.5-1.47 1.78-.16.2-.24.39-.24.56 0 .13.07.28.21.45l3.9 4.63c.2.26.31.56.31.88 0 .38-.16.7-.48.95-.31.25-.7.4-1.14.43l-.45.02h-4.05c-.02 0-.06 0-.11.02a.86.86 0 0 1-.1.01c-.4 0-.76-.16-1.1-.48-.12-.13-.96-1.12-2.5-2.97a1.39 1.39 0 0 0-.38-.32 38.47 38.47 0 0 0-.53 2.24l-.08.42a1.4 1.4 0 0 1-1.12 1.06l-.37.02h-2.61c-1.48 0-2.95-.63-4.41-1.9a19.3 19.3 0 0 1-3.96-4.95A47.51 47.51 0 0 1 .87 3.07a1.92 1.92 0 0 1-.13-.73Zm16.01 6.51c-.37 0-.7-.1-1-.29a.9.9 0 0 1-.46-.79V2c0-.34-.09-.58-.27-.72-.18-.14-.49-.21-.93-.21l-1.52.05c-.76 0-1.34.12-1.73.37.78.36 1.17.93 1.17 1.71v4.43a1.5 1.5 0 0 1-.53 1.04c-.32.28-.68.42-1.07.42-.53 0-.94-.24-1.22-.73a26.16 26.16 0 0 1-3.1-5.63l-.23-.66-3.55-.02c-.23 0-.36.01-.38.03-.03.03-.04.1-.04.22 0 .15.01.3.05.48l.56 1.4c1.5 3.64 3.11 6.51 4.86 8.6 1.75 2.1 3.47 3.15 5.16 3.15h2.66c.1 0 .19-.03.24-.09.05-.06.1-.17.13-.34l.06-.25.5-2.21c.15-.3.27-.5.38-.6.2-.2.42-.28.69-.28.43 0 .86.24 1.3.73l2.27 2.71c.14.22.3.33.45.33h4.4c.53 0 .8-.13.8-.38a.47.47 0 0 0-.08-.25l-3.86-4.55c-.3-.35-.46-.73-.46-1.13 0-.4.14-.8.43-1.16.23-.34.68-.9 1.34-1.67.67-.78 1.25-1.51 1.75-2.19.5-.68.83-1.3.99-1.85l.08-.33a.37.37 0 0 1-.03-.16c0-.07-.01-.14-.03-.19h-4.18c-.27.1-.48.25-.64.45l-.16.48c-.44 1.16-1.6 2.94-3.5 5.36-.36.33-.8.5-1.3.5Z"/></symbol><symbol id="youtube" viewBox="0 0 25 19"><path d="m16.6 8.8-5.24-3.5a.65.65 0 0 0-1.02.55v6.98a.65.65 0 0 0 1.02.54l5.23-3.49a.65.65 0 0 0 0-1.09Zm-4.95 2.8V7.08l3.4 2.27-3.4 2.27Zm12.48-8.56a2.4 2.4 0 0 0-1.45-1.63C18.96-.02 12.99 0 12.74 0S6.52-.02 2.8 1.4a2.4 2.4 0 0 0-1.45 1.64 25.32 25.32 0 0 0-.6 6.3c0 3.26.32 5.22.6 6.3a2.4 2.4 0 0 0 1.45 1.63c3.72 1.43 9.69 1.4 9.94 1.4h.08c.75 0 6.31-.04 9.86-1.4a2.4 2.4 0 0 0 1.45-1.64c.28-1.07.61-3.03.61-6.3 0-3.25-.33-5.22-.61-6.29Zm-1.27 12.27a1.1 1.1 0 0 1-.65.74c-3.5 1.34-9.4 1.32-9.47 1.32-.06 0-5.98.02-9.47-1.32a1.09 1.09 0 0 1-.65-.74c-.26-1-.57-2.85-.57-5.97 0-3.12.3-4.97.57-5.97a1.1 1.1 0 0 1 .65-.74c3.5-1.34 9.4-1.32 9.47-1.32.07 0 5.98-.02 9.47 1.32a1.1 1.1 0 0 1 .65.74c.27 1 .57 2.85.57 5.97 0 3.12-.3 4.96-.57 5.97Z"/></symbol></svg>